<svg width="24" height="24" viewBox="0 0 24 24" fill="none" xmlns="http://www.w3.org/2000/svg">
<path d="M12.9599 20V22H11.0399V20H3.3599C3.0911 20 2.8639 19.9033 2.6783 19.71C2.4927 19.5167 2.3999 19.28 2.3999 19V3C2.3999 2.72 2.4927 2.48333 2.6783 2.29C2.8639 2.09667 3.0911 2 3.3599 2H9.1199C9.6831 2 10.2143 2.12 10.7135 2.36C11.2127 2.6 11.6415 2.93333 11.9999 3.36C12.3583 2.93333 12.7871 2.6 13.2863 2.36C13.7855 2.12 14.3167 2 14.8799 2H20.6399C20.9087 2 21.1359 2.09667 21.3215 2.29C21.5071 2.48333 21.5999 2.72 21.5999 3V19C21.5999 19.28 21.5071 19.5167 21.3215 19.71C21.1359 19.9033 20.9087 20 20.6399 20H12.9599ZM19.6799 18V4H14.8799C14.5343 4 14.2143 4.09 13.9199 4.27C13.6255 4.45 13.3919 4.69333 13.2191 5C13.0463 5.30667 12.9599 5.64 12.9599 6V18H19.6799ZM11.0399 18V6C11.0399 5.64 10.9535 5.30667 10.7807 5C10.6079 4.69333 10.3743 4.45 10.0799 4.27C9.7855 4.09 9.4655 4 9.1199 4H4.3199V18H11.0399Z" fill="#F78211"/>
</svg>
